<?xml version="1.0" encoding="utf-8"?>
<!-- Generator: Adobe Illustrator 23.0.3, SVG Export Plug-In . SVG Version: 6.00 Build 0)  -->
<svg version="1.1" id="Capa_1" xmlns="http://www.w3.org/2000/svg" xmlns:xlink="http://www.w3.org/1999/xlink" x="0px" y="0px"
	 viewBox="0 0 1163.6 1163.6" style="enable-background:new 0 0 1163.6 1163.6;" xml:space="preserve">
<style type="text/css">
	.st0{fill:#231F20;}
	.st1{fill:#202121;}
</style>
<g>
	<g>
		<path class="st0" d="M1098.6,427.9L897.9,252.3c-4.5-4-10.4-6.2-16.5-6.2h-68.5v-90.6c0-41.5-33.8-75.3-75.3-75.3H612.2V30.1
			c0-13.8-11.2-25.1-25.1-25.1H286.1C272.2,5,261,16.2,261,30.1v50.2H135.5c-20.1,0-39,7.8-53.2,22.1s-22,33.1-22,53.2
			c0,0,0,506.7,0,727.3c0,0.1,0,0.2,0,0.3c0,0.1,0,0.2,0,0.3c0,59.9,0,98.6,0,100.1c0,41.5,33.8,75.3,75.3,75.3H460v25.1
			c0,41.5,33.8,75.3,75.3,75.3h496.7c41.5,0,75.2-33.7,75.3-75.2c0,0,0,0,0,0v-637C1107.2,439.5,1104.1,432.7,1098.6,427.9z
			 M311.1,55.2H562v100.4H311.1V55.2z M110.5,155.5c0-6.7,2.6-13,7.3-17.7c4.7-4.7,11-7.4,17.7-7.4H261v50.2
			c0,13.8,11.2,25.1,25.1,25.1h301.1c13.8,0,25.1-11.2,25.1-25.1v-50.2h125.4c13.8,0,25.1,11.3,25.1,25.1v90.6H535.3
			c-41.5,0-75.3,33.8-75.3,75.3V858H110.5c0-1.3,0-2.6,0-3.9V155.5z M110.4,908.2H460v100.4H135.5v0c-13.8,0-25.1-11.2-25.1-25.1
			 M1057,1083.8c0,13.8-11.2,25.1-25.1,25.1H535.3c-13.8,0-25.1-11.2-25.1-25.1V321.3c0-13.8,11.3-25.1,25.1-25.1h270.9V497
			c0,13.9,11.2,25.1,25.1,25.1H1057L1057,1083.8L1057,1083.8z M1057,471.9H856.3V296.3H872l185,161.9V471.9z"/>
	</g>
</g>
<g>
	<path class="st1" d="M640.6,595.9h369.2l-34.9,123.5h-12.2c0.4-6.5,0.7-12.3,0.7-17.3c0-23.5-6.9-41.7-20.6-54.6
		c-13.8-13-37-20.4-69.7-22.2L770.9,970.8c-5.6,19.2-8.5,33.4-8.5,42.6c0,8.6,3.5,15.4,10.5,20.5c7,5.1,21.2,7.8,42.6,8.3l-3,12.5
		H584.8l4.1-12.5c23.2,0,40.2-4.3,50.8-13c10.6-8.7,20.3-28.1,29.1-58.4l102.2-345.5c-35.2,1.1-64.6,8.8-88.3,23
		c-23.7,14.2-45.3,37.9-65,71.1h-13.2L640.6,595.9z"/>
</g>
</svg>
